HIERARCHY
ROOT hip
{
  OFFSET 0 90.174 2.4664
  CHANNELS 6 Xposition Yposition Zposition Zrotation Xrotation Yrotation
  JOINT abdomen
  {
    OFFSET 0 -1.186 -1.5018
    CHANNELS 6 Xposition Yposition Zposition Zrotation Xrotation Yrotation
    JOINT abdomen2
    {
      OFFSET 0 9.964 0.2134
      CHANNELS 6 Xposition Yposition Zposition Zrotation Xrotation Yrotation
      JOINT chest
      {
        OFFSET 0 13.134 -3.2573
        CHANNELS 6 Xposition Yposition Zposition Zrotation Xrotation Yrotation
        JOINT neck
        {
          OFFSET 0 20.686 -1.6905
          CHANNELS 6 Xposition Yposition Zposition Zrotation Xrotation Yrotation
          JOINT head
          {
            OFFSET 0 7.238 -0.1237
            CHANNELS 6 Xposition Yposition Zposition Zrotation Xrotation Yrotation
            End Site
            {
              OFFSET 0 0 0
            }
          }
        }
        JOINT lCollar
        {
          OFFSET 1.7069 20.075 5.0056
          CHANNELS 6 Xposition Yposition Zposition Zrotation Xrotation Yrotation
          JOINT lShldr
          {
            OFFSET 13.6458 -0.047 -4.849
            CHANNELS 6 Xposition Yposition Zposition Zrotation Xrotation Yrotation
            JOINT lForeArm
            {
              OFFSET 28.3255 -0.9759 2.2888
              CHANNELS 6 Xposition Yposition Zposition Zrotation Xrotation Yrotation
              JOINT lHand
              {
                OFFSET 22.1583 -0.53 10.8316
                CHANNELS 6 Xposition Yposition Zposition Zrotation Xrotation Yrotation
                JOINT lThumb1
                {
                  OFFSET 0.786 0.112 2.5817
                  CHANNELS 6 Xposition Yposition Zposition Zrotation Xrotation Yrotation
                  JOINT lThumb2
                  {
                    OFFSET 0.3601 -0.878 4.2331
                    CHANNELS 6 Xposition Yposition Zposition Zrotation Xrotation Yrotation
                    JOINT lThumb2_End
                    {
                      OFFSET 1.8127 -1.216 2.2227
                      CHANNELS 6 Xposition Yposition Zposition Zrotation Xrotation Yrotation
                      End Site
                      {
                        OFFSET 0.0181 -0.0122 0.0222
                      }
                    }
                  }
                }
                JOINT lCarpal1
                {
                  OFFSET 0.9571 1.114 1.7695
                  CHANNELS 6 Xposition Yposition Zposition Zrotation Xrotation Yrotation
                  JOINT lIndex1
                  {
                    OFFSET 4.1246 0.487 4.1451
                    CHANNELS 6 Xposition Yposition Zposition Zrotation Xrotation Yrotation
                    JOINT lIndex2
                    {
                      OFFSET 3.4052 -1.454 2.7682
                      CHANNELS 6 Xposition Yposition Zposition Zrotation Xrotation Yrotation
                      JOINT lIndex2_End
                      {
                        OFFSET 1.4531 -1.795 1.2713
                        CHANNELS 6 Xposition Yposition Zposition Zrotation Xrotation Yrotation
                        End Site
                        {
                          OFFSET 0.0145 -0.0179 0.0127
                        }
                      }
                    }
                  }
                  JOINT lMid1
                  {
                    OFFSET 5.6954 0.21 2.1184
                    CHANNELS 6 Xposition Yposition Zposition Zrotation Xrotation Yrotation
                    JOINT lMid2
                    {
                      OFFSET 3.9766 -1.54 2.3863
                      CHANNELS 6 Xposition Yposition Zposition Zrotation Xrotation Yrotation
                      JOINT lMid2_End
                      {
                        OFFSET 1.4042 -1.926 1.125
                        CHANNELS 6 Xposition Yposition Zposition Zrotation Xrotation Yrotation
                        End Site
                        {
                          OFFSET 0.014 -0.0193 0.0113
                        }
                      }
                    }
                  }
                }
                JOINT lCarpal2
                {
                  OFFSET 2.0956 0.66 -0.3894
                  CHANNELS 6 Xposition Yposition Zposition Zrotation Xrotation Yrotation
                  JOINT lRing1
                  {
                    OFFSET 5.0395 -0.09 2.4971
                    CHANNELS 6 Xposition Yposition Zposition Zrotation Xrotation Yrotation
                    JOINT lRing2
                    {
                      OFFSET 3.7921 -1.552 1.4806
                      CHANNELS 6 Xposition Yposition Zposition Zrotation Xrotation Yrotation
                      JOINT lRing2_End
                      {
                        OFFSET 1.4655 -1.808 0.9609
                        CHANNELS 6 Xposition Yposition Zposition Zrotation Xrotation Yrotation
                        End Site
                        {
                          OFFSET 0.0147 -0.0181 0.0096
                        }
                      }
                    }
                  }
                  JOINT lPinky1
                  {
                    OFFSET 4.9141 -1.269 0.3591
                    CHANNELS 6 Xposition Yposition Zposition Zrotation Xrotation Yrotation
                    JOINT lPinky2
                    {
                      OFFSET 3.1477 -1.685 0.8462
                      CHANNELS 6 Xposition Yposition Zposition Zrotation Xrotation Yrotation
                      JOINT lPinky2_End
                      {
                        OFFSET 0.8055 -1.585 0.7955
                        CHANNELS 6 Xposition Yposition Zposition Zrotation Xrotation Yrotation
                        End Site
                        {
                          OFFSET 0.0081 -0.0158 0.008
                        }
                      }
                    }
                  }
                }
              }
            }
          }
        }
        JOINT rCollar
        {
          OFFSET -1.7069 20.075 5.0056
          CHANNELS 6 Xposition Yposition Zposition Zrotation Xrotation Yrotation
          JOINT rShldr
          {
            OFFSET -13.6458 -0.047 -4.849
            CHANNELS 6 Xposition Yposition Zposition Zrotation Xrotation Yrotation
            JOINT rForeArm
            {
              OFFSET -28.3255 -0.9759 2.2888
              CHANNELS 6 Xposition Yposition Zposition Zrotation Xrotation Yrotation
              JOINT rHand
              {
                OFFSET -22.1583 -0.53 10.8316
                CHANNELS 6 Xposition Yposition Zposition Zrotation Xrotation Yrotation
                JOINT rThumb1
                {
                  OFFSET -0.786 0.112 2.5817
                  CHANNELS 6 Xposition Yposition Zposition Zrotation Xrotation Yrotation
                  JOINT rThumb2
                  {
                    OFFSET -0.3601 -0.878 4.2331
                    CHANNELS 6 Xposition Yposition Zposition Zrotation Xrotation Yrotation
                    JOINT rThumb2_End
                    {
                      OFFSET -1.8127 -1.216 2.2227
                      CHANNELS 6 Xposition Yposition Zposition Zrotation Xrotation Yrotation
                      End Site
                      {
                        OFFSET -0.0181 -0.0122 0.0222
                      }
                    }
                  }
                }
                JOINT rCarpal1
                {
                  OFFSET -0.9571 1.114 1.7695
                  CHANNELS 6 Xposition Yposition Zposition Zrotation Xrotation Yrotation
                  JOINT rIndex1
                  {
                    OFFSET -4.1246 0.487 4.1451
                    CHANNELS 6 Xposition Yposition Zposition Zrotation Xrotation Yrotation
                    JOINT rIndex2
                    {
                      OFFSET -3.4052 -1.454 2.7682
                      CHANNELS 6 Xposition Yposition Zposition Zrotation Xrotation Yrotation
                      JOINT rIndex2_End
                      {
                        OFFSET -1.4531 -1.795 1.2713
                        CHANNELS 6 Xposition Yposition Zposition Zrotation Xrotation Yrotation
                        End Site
                        {
                          OFFSET -0.0145 -0.018 0.0127
                        }
                      }
                    }
                  }
                  JOINT rMid1
                  {
                    OFFSET -5.6954 0.21 2.1184
                    CHANNELS 6 Xposition Yposition Zposition Zrotation Xrotation Yrotation
                    JOINT rMid2
                    {
                      OFFSET -3.9766 -1.54 2.3863
                      CHANNELS 6 Xposition Yposition Zposition Zrotation Xrotation Yrotation
                      JOINT rMid2_End
                      {
                        OFFSET -1.4042 -1.926 1.125
                        CHANNELS 6 Xposition Yposition Zposition Zrotation Xrotation Yrotation
                        End Site
                        {
                          OFFSET -0.014 -0.0193 0.0113
                        }
                      }
                    }
                  }
                }
                JOINT rCarpal2
                {
                  OFFSET -2.0956 0.66 -0.3894
                  CHANNELS 6 Xposition Yposition Zposition Zrotation Xrotation Yrotation
                  JOINT rRing1
                  {
                    OFFSET -5.0395 -0.09 2.4971
                    CHANNELS 6 Xposition Yposition Zposition Zrotation Xrotation Yrotation
                    JOINT rRing2
                    {
                      OFFSET -3.7921 -1.552 1.4806
                      CHANNELS 6 Xposition Yposition Zposition Zrotation Xrotation Yrotation
                      JOINT rRing2_End
                      {
                        OFFSET -1.4655 -1.808 0.9609
                        CHANNELS 6 Xposition Yposition Zposition Zrotation Xrotation Yrotation
                        End Site
                        {
                          OFFSET -0.0147 -0.0181 0.0096
                        }
                      }
                    }
                  }
                  JOINT rPinky1
                  {
                    OFFSET -4.9141 -1.269 0.3592
                    CHANNELS 6 Xposition Yposition Zposition Zrotation Xrotation Yrotation
                    JOINT rPinky2
                    {
                      OFFSET -3.1477 -1.685 0.8462
                      CHANNELS 6 Xposition Yposition Zposition Zrotation Xrotation Yrotation
                      JOINT rPinky2_End
                      {
                        OFFSET -0.8055 -1.585 0.7955
                        CHANNELS 6 Xposition Yposition Zposition Zrotation Xrotation Yrotation
                        End Site
                        {
                          OFFSET -0.0081 -0.0158 0.008
                        }
                      }
                    }
                  }
                }
              }
            }
          }
        }
      }
    }
  }
  JOINT lThigh
  {
    OFFSET 8.367 -8.2066 0.5982
    CHANNELS 6 Xposition Yposition Zposition Zrotation Xrotation Yrotation
    JOINT lShin
    {
      OFFSET 2.1923 -43.463 -0.4932
      CHANNELS 6 Xposition Yposition Zposition Zrotation Xrotation Yrotation
      JOINT lFoot
      {
        OFFSET 0.7333 -45.8593 -2.6451
        CHANNELS 6 Xposition Yposition Zposition Zrotation Xrotation Yrotation
        End Site
        {
          OFFSET 2.6618 -4.2699 12.3931
        }
      }
    }
  }
  JOINT rThigh
  {
    OFFSET -8.367 -8.2066 0.5982
    CHANNELS 6 Xposition Yposition Zposition Zrotation Xrotation Yrotation
    JOINT rShin
    {
      OFFSET -2.1923 -43.463 -0.4931
      CHANNELS 6 Xposition Yposition Zposition Zrotation Xrotation Yrotation
      JOINT rFoot
      {
        OFFSET -0.7333 -45.8593 -2.6451
        CHANNELS 6 Xposition Yposition Zposition Zrotation Xrotation Yrotation
        End Site
        {
          OFFSET -2.6618 -4.2699 12.3931
        }
      }
    }
  }
}
MOTION
Frames:	4
Frame Time:	0.0333333
0 90.174 2.4664 0 0 -0 0 -1.186 -1.5018 0 0 -0 0 9.964 0.2134 0 0 -0 0 13.134 -3.2573 0 0 -0 0 20.686 -1.6905 0 0 -0 0 7.238 -0.1237 0 0 -0 1.7069 20.075 5.0056 0 0 -0 13.6458 -0.047 -4.849 1.66051 0.0835086 5.75766 28.3255 -0.9759 2.2888 -0.0175111 0.895433 15.7816 22.1583 -0.53 10.8316 7.95139e-016 -1.98785e-016 -0 0.786 0.112 2.5817 5.46658e-016 -3.97569e-016 -0 0.3601 -0.878 4.2331 5.96354e-016 0 -0 1.8127 -1.216 2.2227 3.97569e-016 1.98785e-016 9.54166e-015 0.9571 1.114 1.7695 1.49089e-016 -3.97569e-016 -0 4.1246 0.487 4.1451 6.4605e-016 0 3.18055e-015 3.4052 -1.454 2.7682 5.96354e-016 0 3.18055e-015 1.4531 -1.795 1.2713 8.94531e-016 -1.98785e-016 6.36111e-015 5.6954 0.21 2.1184 6.4605e-016 0 3.18055e-015 3.9766 -1.54 2.3863 5.96354e-016 0 3.18055e-015 1.4042 -1.926 1.125 8.94531e-016 -1.98785e-016 6.36111e-015 2.0956 0.66 -0.3894 1.49089e-016 -3.97569e-016 -0 5.0395 -0.09 2.4971 6.4605e-016 0 3.18055e-015 3.7921 -1.552 1.4806 5.96354e-016 0 3.18055e-015 1.4655 -1.808 0.9609 8.94531e-016 -1.98785e-016 6.36111e-015 4.9141 -1.269 0.3591 6.4605e-016 0 3.18055e-015 3.1477 -1.685 0.8462 5.96354e-016 0 3.18055e-015 0.8055 -1.585 0.7955 8.94531e-016 -1.98785e-016 6.36111e-015 -1.7069 20.075 5.0056 0 0 -0 -13.6458 -0.047 -4.849 -1.4496 0.0636048 -5.0245 -28.3255 -0.9759 2.2888 -1.74811 1.20616 -16.8394 -22.1583 -0.53 10.8316 -1.19271e-015 1.98785e-016 -3.18055e-015 -0.786 0.112 2.5817 -3.97569e-016 1.98785e-016 -3.18055e-015 -0.3601 -0.878 4.2331 -2.98177e-016 1.98785e-016 -3.18055e-015 -1.8127 -1.216 2.2227 -2.98177e-016 3.97569e-016 -0 -0.9571 1.114 1.7695 4.96962e-016 0 -6.36111e-015 -4.1246 0.487 4.1451 -9.93923e-017 3.97569e-016 -0 -3.4052 -1.454 2.7682 -8.94531e-016 5.96354e-016 -0 -1.4531 -1.795 1.2713 -3.97569e-016 3.97569e-016 -0 -5.6954 0.21 2.1184 -9.93923e-017 3.97569e-016 -0 -3.9766 -1.54 2.3863 -8.94531e-016 5.96354e-016 -0 -1.4042 -1.926 1.125 -3.97569e-016 3.97569e-016 -0 -2.0956 0.66 -0.3894 4.96962e-016 0 -6.36111e-015 -5.0395 -0.09 2.4971 -9.93923e-017 3.97569e-016 -0 -3.7921 -1.552 1.4806 -8.94531e-016 5.96354e-016 -0 -1.4655 -1.808 0.9609 -3.97569e-016 3.97569e-016 -0 -4.9141 -1.269 0.3592 -9.93923e-017 3.97569e-016 -0 -3.1477 -1.685 0.8462 -8.94531e-016 5.96354e-016 -0 -0.8055 -1.585 0.7955 -3.97569e-016 3.97569e-016 -0 8.367 -8.2066 0.5982 -4.66115 -1.03232 0.120763 2.1923 -43.463 -0.4932 0.00990601 1.55097 0.177175 0.7333 -45.8593 -2.6451 4.65196 -0.54114 -0.255042 -8.367 -8.2066 0.5982 4.66115 -1.03222 -0.120763 -2.1923 -43.463 -0.4931 -0.00990459 1.5509 -0.177176 -0.7333 -45.8593 -2.6451 -4.65196 -0.541171 0.255041 
-9.51211 66.4641 2.67919 0 0 -0 0 -1.186 -1.5018 0.00845209 8.55892 -0.0183779 0 9.964 0.2134 0.0200594 17.1178 -0.0387096 1.77636e-015 13.134 -3.2573 0.0200593 17.1178 -0.0387096 0 20.686 -1.6905 2.70621 3.48022 0.176063 -8.88178e-016 7.238 -0.1237 -0.0204776 -11.0987 -0.0125064 1.7069 20.075 5.0056 18.2027 -38.9377 4.10292 13.6458 -0.047 -4.849 -5.38637 2.07129 -8.53597 28.3255 -0.9759 2.2888 -2.13266 1.40486 9.87435 22.1583 -0.53 10.8316 10.2303 -10.6961 1.12949 0.786 0.112 2.5817 -2.92345e-007 -1.04014e-007 -8.30936e-007 0.3601 -0.878 4.2331 2.92345e-007 1.04014e-007 8.30936e-007 1.8127 -1.216 2.2227 -2.92345e-007 -1.04014e-007 -8.30936e-007 0.9571 1.114 1.7695 -2.88238e-015 -7.95139e-016 7.95139e-016 4.1246 0.487 4.1451 -2.92345e-007 -1.04014e-007 -8.30936e-007 3.4052 -1.454 2.7682 2.92345e-007 1.04014e-007 8.30936e-007 1.4531 -1.795 1.2713 -2.92345e-007 -1.04014e-007 -8.30936e-007 5.6954 0.21 2.1184 -2.92345e-007 -1.04014e-007 -8.30936e-007 3.9766 -1.54 2.3863 2.92345e-007 1.04014e-007 8.30936e-007 1.4042 -1.926 1.125 -2.92345e-007 -1.04014e-007 -8.30936e-007 2.0956 0.66 -0.3894 -2.88238e-015 -7.95139e-016 7.95139e-016 5.0395 -0.09 2.4971 -2.92345e-007 -1.04014e-007 -8.30936e-007 3.7921 -1.552 1.4806 2.92345e-007 1.04014e-007 8.30936e-007 1.4655 -1.808 0.9609 -2.92345e-007 -1.04014e-007 -8.30936e-007 4.9141 -1.269 0.3591 -2.92345e-007 -1.04014e-007 -8.30936e-007 3.1477 -1.685 0.8462 2.92345e-007 1.04014e-007 8.30936e-007 0.8055 -1.585 0.7955 -2.92345e-007 -1.04014e-007 -8.30936e-007 -1.7069 20.075 5.0056 -8.53672 -20.3123 -2.61741 -13.6458 -0.047 -4.849 7.48666 3.51603 10.423 -28.3255 -0.9759 2.2888 2.83327 1.99822 -11.0435 -22.1583 -0.53 10.8316 -12.2706 -6.85465 -13.624 -0.786 0.112 2.5817 -1.98785e-015 6.36111e-015 4.77083e-015 -0.3601 -0.878 4.2331 1.59028e-015 0 -3.18055e-015 -1.8127 -1.216 2.2227 1.66394e-006 1.56048e-007 2.97519e-007 -0.9571 1.114 1.7695 -1.98785e-015 3.18055e-015 4.77083e-015 -4.1246 0.487 4.1451 -1.98785e-015 -3.18055e-015 6.36111e-015 -3.4052 -1.454 2.7682 1.19271e-015 0 -0 -1.4531 -1.795 1.2713 1.66394e-006 1.56048e-007 2.97519e-007 -5.6954 0.21 2.1184 -1.98785e-015 -3.18055e-015 6.36111e-015 -3.9766 -1.54 2.3863 1.19271e-015 0 -0 -1.4042 -1.926 1.125 1.66394e-006 1.56048e-007 2.97519e-007 -2.0956 0.66 -0.3894 -1.98785e-015 3.18055e-015 4.77083e-015 -5.0395 -0.09 2.4971 -1.98785e-015 -3.18055e-015 6.36111e-015 -3.7921 -1.552 1.4806 1.19271e-015 0 -0 -1.4655 -1.808 0.9609 1.66394e-006 1.56048e-007 2.97519e-007 -4.9141 -1.269 0.3592 -1.98785e-015 -3.18055e-015 6.36111e-015 -3.1477 -1.685 0.8462 1.19271e-015 0 -0 -0.8055 -1.585 0.7955 1.66394e-006 1.56048e-007 2.97519e-007 8.367 -8.2066 0.5982 -2.84856 -20.5396 2.81117 2.1923 -43.463 -0.4932 -0.356962 53.9879 0.244052 0.7333 -45.8593 -2.6451 7.57463 22.3456 0.866604 -8.367 -8.2066 0.5982 2.82678 -20.5399 -2.84166 -2.1923 -43.463 -0.4931 0.360648 53.9962 -0.217567 -0.7333 -45.8593 -2.6451 -7.57811 22.5536 -0.852493 
-19.0229 42.1126 2.60476 0 0 -0 0 -1.186 -1.5018 0.0193433 17.1178 -0.0438377 3.55271e-015 9.964 0.2134 0.0573116 34.2357 -0.101401 0 13.134 -3.2573 0.0573116 34.2357 -0.101401 0 20.686 -1.6905 5.3909 6.96187 0.354081 1.77636e-015 7.238 -0.1237 -0.0461526 -22.1973 -0.0265077 1.7069 20.075 5.0056 58.8838 -76.448 28.3112 13.6458 -0.047 -4.849 -11.3879 3.63108 -22.8724 28.3255 -0.9759 2.2888 -4.17419 1.88334 3.97305 22.1583 -0.53 10.8316 20.9614 -21.2625 2.81053 0.786 0.112 2.5817 -0 -1.59028e-015 -0 0.3601 -0.878 4.2331 1.59028e-015 -1.59028e-015 9.54166e-015 1.8127 -1.216 2.2227 3.56109e-007 -7.69507e-007 3.74067e-008 0.9571 1.114 1.7695 -0 -1.59028e-015 -0 4.1246 0.487 4.1451 1.59028e-015 -6.36111e-015 1.90833e-014 3.4052 -1.454 2.7682 1.59028e-015 0 3.18055e-015 1.4531 -1.795 1.2713 3.56109e-007 -7.69507e-007 3.74067e-008 5.6954 0.21 2.1184 1.59028e-015 -6.36111e-015 1.90833e-014 3.9766 -1.54 2.3863 1.59028e-015 0 3.18055e-015 1.4042 -1.926 1.125 3.56109e-007 -7.69507e-007 3.74067e-008 2.0956 0.66 -0.3894 -0 -1.59028e-015 -0 5.0395 -0.09 2.4971 1.59028e-015 -6.36111e-015 1.90833e-014 3.7921 -1.552 1.4806 1.59028e-015 0 3.18055e-015 1.4655 -1.808 0.9609 3.56109e-007 -7.69507e-007 3.74067e-008 4.9141 -1.269 0.3591 1.59028e-015 -6.36111e-015 1.90833e-014 3.1477 -1.685 0.8462 1.59028e-015 0 3.18055e-015 0.8055 -1.585 0.7955 3.56109e-007 -7.69507e-007 3.74067e-008 -1.7069 20.075 5.0056 -19.4595 -40.4833 -6.46006 -13.6458 -0.047 -4.849 14.5531 6.15391 26.0081 -28.3255 -0.9759 2.2888 7.3106 2.74701 -5.27612 -22.1583 -0.53 10.8316 -25.8906 -13.4661 -28.4947 -0.786 0.112 2.5817 1.62482e-006 -1.01446e-007 4.8998e-007 -0.3601 -0.878 4.2331 7.95139e-016 -3.18055e-015 -1.59028e-015 -1.8127 -1.216 2.2227 2.38542e-015 9.54166e-015 -1.59028e-015 -0.9571 1.114 1.7695 2.64834e-031 9.54166e-015 -1.59028e-015 -4.1246 0.487 4.1451 1.62482e-006 -1.01446e-007 4.8998e-007 -3.4052 -1.454 2.7682 -7.95139e-016 3.18055e-015 -3.18055e-015 -1.4531 -1.795 1.2713 2.38542e-015 -6.36111e-015 -1.59028e-015 -5.6954 0.21 2.1184 1.62482e-006 -1.01446e-007 4.8998e-007 -3.9766 -1.54 2.3863 -7.95139e-016 3.18055e-015 -3.18055e-015 -1.4042 -1.926 1.125 2.38542e-015 -6.36111e-015 -1.59028e-015 -2.0956 0.66 -0.3894 2.64834e-031 9.54166e-015 -1.59028e-015 -5.0395 -0.09 2.4971 1.62482e-006 -1.01446e-007 4.8998e-007 -3.7921 -1.552 1.4806 -7.95139e-016 3.18055e-015 -3.18055e-015 -1.4655 -1.808 0.9609 2.38542e-015 -6.36111e-015 -1.59028e-015 -4.9141 -1.269 0.3592 1.62482e-006 -1.01446e-007 4.8998e-007 -3.1477 -1.685 0.8462 -7.95139e-016 3.18055e-015 -3.18055e-015 -0.8055 -1.585 0.7955 2.38542e-015 -6.36111e-015 -1.59028e-015 8.367 -8.2066 0.5982 -0.152892 -41.3023 7.75662 2.1923 -43.463 -0.4932 169.231 72.5739 -167.612 0.7333 -45.8593 -2.6451 9.12971 45.9194 3.11977 -8.367 -8.2066 0.5982 0.0870162 -41.3158 -7.82811 -2.1923 -43.463 -0.4931 -169.076 72.5354 167.496 -0.7333 -45.8593 -2.6451 -9.12568 46.3366 -3.10093 
-25.6786 25.1229 2.29791 0 0 -0 0 -1.186 -1.5018 0.0299065 23.1091 -0.0678705 3.55271e-015 9.964 0.2134 0.10816 46.2181 -0.175055 0 13.134 -3.2573 0.10816 46.2181 -0.175055 -3.55271e-015 20.686 -1.6905 7.25343 9.24185 0.501017 3.55271e-015 7.238 -0.1237 -8.5302e-007 -30.0023 6.44179e-007 1.7069 20.075 5.0056 -166.532 -72.4606 150.143 13.6458 -0.047 -4.849 -15.0479 4.24224 -32.9136 28.3255 -0.9759 2.2888 -5.56215 2.19324 -0.154753 22.1583 -0.53 10.8316 28.9783 -28.493 4.43443 0.786 0.112 2.5817 -3.23619e-006 1.70773e-006 1.0103e-006 0.3601 -0.878 4.2331 -6.84978e-006 1.13219e-006 2.06493e-006 1.8127 -1.216 2.2227 2.38542e-015 -2.78299e-015 -3.18055e-015 0.9571 1.114 1.7695 -1.59028e-015 -3.57812e-015 -3.18055e-015 4.1246 0.487 4.1451 -3.23619e-006 1.70773e-006 1.0103e-006 3.4052 -1.454 2.7682 -6.84978e-006 1.13219e-006 2.06493e-006 1.4531 -1.795 1.2713 2.38542e-015 -3.18055e-015 -0 5.6954 0.21 2.1184 -3.23619e-006 1.70773e-006 1.0103e-006 3.9766 -1.54 2.3863 -6.84978e-006 1.13219e-006 2.06493e-006 1.4042 -1.926 1.125 2.38542e-015 -3.18055e-015 -0 2.0956 0.66 -0.3894 -1.59028e-015 -3.57812e-015 -3.18055e-015 5.0395 -0.09 2.4971 -3.23619e-006 1.70773e-006 1.0103e-006 3.7921 -1.552 1.4806 -6.84978e-006 1.13219e-006 2.06493e-006 1.4655 -1.808 0.9609 2.38542e-015 -3.18055e-015 -0 4.9141 -1.269 0.3591 -3.23619e-006 1.70773e-006 1.0103e-006 3.1477 -1.685 0.8462 -6.84978e-006 1.13219e-006 2.06493e-006 0.8055 -1.585 0.7955 2.38542e-015 -3.18055e-015 -0 -1.7069 20.075 5.0056 -29.8445 -54.3501 -11.3215 -13.6458 -0.047 -4.849 18.5934 7.11735 36.9647 -28.3255 -0.9759 2.2888 10.3747 3.2315 -1.27593 -22.1583 -0.53 10.8316 -36.3994 -17.5519 -39.8072 -0.786 0.112 2.5817 8.6705e-007 -1.84961e-006 8.34574e-007 -0.3601 -0.878 4.2331 -1.35399e-006 -1.32131e-006 -8.17962e-007 -1.8127 -1.216 2.2227 1.59028e-015 6.36111e-015 4.77083e-015 -0.9571 1.114 1.7695 -1.59028e-015 3.18055e-015 -1.59028e-015 -4.1246 0.487 4.1451 8.6705e-007 -1.84961e-006 8.34574e-007 -3.4052 -1.454 2.7682 -1.35399e-006 -1.32131e-006 -8.17962e-007 -1.4531 -1.795 1.2713 -0 0 7.95139e-015 -5.6954 0.21 2.1184 8.6705e-007 -1.84961e-006 8.34574e-007 -3.9766 -1.54 2.3863 -1.35399e-006 -1.32131e-006 -8.17962e-007 -1.4042 -1.926 1.125 -0 0 7.95139e-015 -2.0956 0.66 -0.3894 -1.59028e-015 3.18055e-015 -1.59028e-015 -5.0395 -0.09 2.4971 8.6705e-007 -1.84961e-006 8.34574e-007 -3.7921 -1.552 1.4806 -1.35399e-006 -1.32131e-006 -8.17962e-007 -1.4655 -1.808 0.9609 -0 0 7.95139e-015 -4.9141 -1.269 0.3592 8.6705e-007 -1.84961e-006 8.34574e-007 -3.1477 -1.685 0.8462 -1.35399e-006 -1.32131e-006 -8.17962e-007 -0.8055 -1.585 0.7955 -0 0 7.95139e-015 8.367 -8.2066 0.5982 3.46803 -59.2898 19.0621 2.1923 -43.463 -0.4932 172.311 35.1517 -165.134 0.7333 -45.8593 -2.6451 3.7986 66.236 11.4687 -8.367 -8.2066 0.5982 -3.57618 -59.3075 -19.164 -2.1923 -43.463 -0.4931 -172.207 35.1017 165.069 -0.7333 -45.8593 -2.6451 -3.57308 66.8056 -11.6359 
